<svg width="400" height="400" viewBox="0 0 400 400" xmlns="http://www.w3.org/2000/svg" role="img">
  <title>Altered D-IT Solutions Sigil Logo</title>
  <desc>Sigil logo combining ALTERED and D-IT letter strokes with sacred geometry</desc>

  <rect width="400" height="400" fill="#0A0F0A"/>

  <defs>
    <radialGradient id="glow" cx="50%" cy="50%" r="50%">
      <stop offset="0%" stop-color="#4A7C4A" stop-opacity="0.2"/>
      <stop offset="100%" stop-color="#0A0F0A" stop-opacity="0"/>
    </radialGradient>
  </defs>

  <ellipse cx="200" cy="185" rx="140" ry="140" fill="url(#glow)"/>

  <circle cx="200" cy="185" r="115" fill="none" stroke="#1E3A1E" stroke-width="0.6"/>
  <circle cx="200" cy="185" r="92"  fill="none" stroke="#1E3A1E" stroke-width="0.5" stroke-dasharray="3 5"/>
  <circle cx="200" cy="185" r="68"  fill="none" stroke="#2D5A2D" stroke-width="0.6"/>

  <polygon points="200,78 294,240 106,240" fill="none" stroke="#2D5A2D" stroke-width="0.9"/>
  <polygon points="200,292 106,130 294,130" fill="none" stroke="#1E3A1E" stroke-width="0.5"/>

  <line x1="85"  y1="185" x2="315" y2="185" stroke="#1E3A1E" stroke-width="0.4"/>
  <line x1="200" y1="70"  x2="200" y2="300" stroke="#1E3A1E" stroke-width="0.4"/>
  <line x1="107" y1="107" x2="293" y2="263" stroke="#1E3A1E" stroke-width="0.3"/>
  <line x1="293" y1="107" x2="107" y2="263" stroke="#1E3A1E" stroke-width="0.3"/>

  <path d="M165,185 Q200,162 235,185 Q200,208 165,185" fill="none" stroke="#4A7C4A" stroke-width="0.8"/>

  <g stroke="#E8F0E0" stroke-width="1.8" stroke-linecap="round" fill="none">
    <line x1="168" y1="138" x2="184" y2="232"/>
    <line x1="232" y1="138" x2="216" y2="232"/>
    <line x1="174" y1="185" x2="226" y2="185"/>

    <line x1="148" y1="138" x2="148" y2="232"/>
    <path d="M148,138 Q178,138 178,185 Q178,232 148,232"/>

    <line x1="118" y1="138" x2="142" y2="138"/>
    <line x1="130" y1="138" x2="130" y2="232"/>
    <line x1="118" y1="232" x2="142" y2="232"/>
  </g>

  <g stroke="#4A7C4A" stroke-width="1.5" stroke-linecap="round" fill="none">
    <line x1="246" y1="138" x2="270" y2="138"/>
    <line x1="258" y1="138" x2="258" y2="232"/>
    <line x1="246" y1="232" x2="270" y2="232"/>

    <line x1="280" y1="138" x2="280" y2="232"/>
    <line x1="280" y1="138" x2="304" y2="138"/>
    <line x1="280" y1="185" x2="300" y2="185"/>
    <line x1="280" y1="232" x2="304" y2="232"/>
  </g>

  <circle cx="200" cy="185" r="5"   fill="#E8F0E0"/>
  <circle cx="200" cy="185" r="2.5" fill="#0A0F0A"/>

  <circle cx="200" cy="78"  r="2.5" fill="#4A7C4A"/>
  <circle cx="106" cy="240" r="2.5" fill="#4A7C4A"/>
  <circle cx="294" cy="240" r="2.5" fill="#4A7C4A"/>
  <circle cx="200" cy="292" r="2"   fill="#2D5A2D"/>
  <circle cx="106" cy="130" r="2"   fill="#2D5A2D"/>
  <circle cx="294" cy="130" r="2"   fill="#2D5A2D"/>

  <text x="200" y="336" text-anchor="middle" font-family="Georgia, serif" font-size="22" font-weight="700" letter-spacing="12" fill="#E8F0E0">ALTERED</text>

  <line x1="88"  y1="348" x2="148" y2="348" stroke="#2D5A2D" stroke-width="0.5"/>
  <line x1="252" y1="348" x2="312" y2="348" stroke="#2D5A2D" stroke-width="0.5"/>

  <text x="200" y="366" text-anchor="middle" font-family="monospace" font-size="9" letter-spacing="4" fill="#4A7C4A">D-IT SOLUTIONS</text>

  <circle cx="196" cy="382" r="1.5" fill="#2D5A2D"/>
  <circle cx="200" cy="382" r="1.5" fill="#2D5A2D"/>
  <circle cx="204" cy="382" r="1.5" fill="#2D5A2D"/>
</svg>
